<svg xmlns="http://www.w3.org/2000/svg" width="1200" height="480" viewBox="0 0 1200 480" role="img">
<defs>
 <linearGradient id="sky" x1="0" y1="0" x2="0" y2="1">
   <stop offset="0%" stop-color="#05010f"/>
   <stop offset="42%" stop-color="#1a0a38"/>
   <stop offset="60%" stop-color="#4a0f4e"/>
   <stop offset="70%" stop-color="#9c1668"/>
   <stop offset="75%" stop-color="#ff2e97"/>
 </linearGradient>
 <linearGradient id="floor" x1="0" y1="0" x2="0" y2="1">
   <stop offset="0%" stop-color="#12021f"/>
   <stop offset="100%" stop-color="#37003a"/>
 </linearGradient>
 <linearGradient id="sun" x1="0" y1="0" x2="0" y2="1">
   <stop offset="0%" stop-color="#fff27a"/>
   <stop offset="40%" stop-color="#ff9d3d"/>
   <stop offset="72%" stop-color="#ff4d8f"/>
   <stop offset="100%" stop-color="#ff1f7a"/>
 </linearGradient>
 <linearGradient id="grid" x1="0" y1="0" x2="1" y2="0">
   <stop offset="0%" stop-color="#20e6ff"/>
   <stop offset="50%" stop-color="#8a5bff"/>
   <stop offset="100%" stop-color="#ff2e97"/>
 </linearGradient>
 <filter id="glow" x="-60%" y="-60%" width="220%" height="220%">
   <feGaussianBlur stdDeviation="6" result="b"/>
   <feMerge><feMergeNode in="b"/><feMergeNode in="SourceGraphic"/></feMerge>
 </filter>
 <filter id="bigglow" x="-80%" y="-80%" width="260%" height="260%">
   <feGaussianBlur stdDeviation="14"/>
 </filter>
 <clipPath id="sunclip"><circle cx="600" cy="312" r="122"/></clipPath>
</defs>
<rect x="0" y="0" width="1200" height="300" fill="url(#sky)"/>
<rect x="0" y="300" width="1200" height="180" fill="url(#floor)"/>
<rect x="120" y="50" width="4" height="4" fill="#eafcff" opacity="0.85"/>
<rect x="260" y="90" width="3" height="3" fill="#eafcff" opacity="0.85"/>
<rect x="380" y="40" width="4" height="4" fill="#eafcff" opacity="0.85"/>
<rect x="520" y="70" width="3" height="3" fill="#eafcff" opacity="0.85"/>
<rect x="700" y="45" width="4" height="4" fill="#eafcff" opacity="0.85"/>
<rect x="840" y="85" width="3" height="3" fill="#eafcff" opacity="0.85"/>
<rect x="960" y="55" width="4" height="4" fill="#eafcff" opacity="0.85"/>
<rect x="1080" y="90" width="3" height="3" fill="#eafcff" opacity="0.85"/>
<rect x="180" y="140" width="3" height="3" fill="#eafcff" opacity="0.85"/>
<rect x="1040" y="150" width="3" height="3" fill="#eafcff" opacity="0.85"/>
<rect x="90" y="200" width="3" height="3" fill="#eafcff" opacity="0.85"/>
<circle cx="600" cy="312" r="146" fill="#ff2e97" opacity="0.35" filter="url(#bigglow)"/>
<g clip-path="url(#sunclip)">
<rect x="478" y="190" width="244" height="244" fill="url(#sun)"/>
<rect x="472" y="306.0" width="256" height="2.0" fill="#12021f" opacity="0.92"/>
<rect x="472" y="314.0" width="256" height="3.4" fill="#12021f" opacity="0.92"/>
<rect x="472" y="325.0" width="256" height="4.8" fill="#12021f" opacity="0.92"/>
<rect x="472" y="339.0" width="256" height="6.2" fill="#12021f" opacity="0.92"/>
<rect x="472" y="356.0" width="256" height="7.6" fill="#12021f" opacity="0.92"/>
<rect x="472" y="376.0" width="256" height="9.0" fill="#12021f" opacity="0.92"/>
<rect x="472" y="399.0" width="256" height="10.4" fill="#12021f" opacity="0.92"/>
<rect x="472" y="425.0" width="256" height="11.8" fill="#12021f" opacity="0.92"/>
</g>
<circle cx="600" cy="312" r="122" fill="none" stroke="#ffd36b" stroke-width="2" opacity="0.6" filter="url(#glow)"/>
<rect x="0" y="298" width="1200" height="4" fill="#20e6ff" filter="url(#glow)"/>
<line x1="600" y1="300" x2="-600" y2="480" stroke="url(#grid)" stroke-width="1.6" opacity="0.55"/>
<line x1="600" y1="300" x2="-530" y2="480" stroke="url(#grid)" stroke-width="1.6" opacity="0.55"/>
<line x1="600" y1="300" x2="-460" y2="480" stroke="url(#grid)" stroke-width="1.6" opacity="0.55"/>
<line x1="600" y1="300" x2="-390" y2="480" stroke="url(#grid)" stroke-width="1.6" opacity="0.55"/>
<line x1="600" y1="300" x2="-320" y2="480" stroke="url(#grid)" stroke-width="1.6" opacity="0.55"/>
<line x1="600" y1="300" x2="-250" y2="480" stroke="url(#grid)" stroke-width="1.6" opacity="0.55"/>
<line x1="600" y1="300" x2="-180" y2="480" stroke="url(#grid)" stroke-width="1.6" opacity="0.55"/>
<line x1="600" y1="300" x2="-110" y2="480" stroke="url(#grid)" stroke-width="1.6" opacity="0.55"/>
<line x1="600" y1="300" x2="-40" y2="480" stroke="url(#grid)" stroke-width="1.6" opacity="0.55"/>
<line x1="600" y1="300" x2="30" y2="480" stroke="url(#grid)" stroke-width="1.6" opacity="0.55"/>
<line x1="600" y1="300" x2="100" y2="480" stroke="url(#grid)" stroke-width="1.6" opacity="0.55"/>
<line x1="600" y1="300" x2="170" y2="480" stroke="url(#grid)" stroke-width="1.6" opacity="0.55"/>
<line x1="600" y1="300" x2="240" y2="480" stroke="url(#grid)" stroke-width="1.6" opacity="0.55"/>
<line x1="600" y1="300" x2="310" y2="480" stroke="url(#grid)" stroke-width="1.6" opacity="0.55"/>
<line x1="600" y1="300" x2="380" y2="480" stroke="url(#grid)" stroke-width="1.6" opacity="0.55"/>
<line x1="600" y1="300" x2="450" y2="480" stroke="url(#grid)" stroke-width="1.6" opacity="0.55"/>
<line x1="600" y1="300" x2="520" y2="480" stroke="url(#grid)" stroke-width="1.6" opacity="0.55"/>
<line x1="600" y1="300" x2="590" y2="480" stroke="url(#grid)" stroke-width="1.6" opacity="0.55"/>
<line x1="600" y1="300" x2="660" y2="480" stroke="url(#grid)" stroke-width="1.6" opacity="0.55"/>
<line x1="600" y1="300" x2="730" y2="480" stroke="url(#grid)" stroke-width="1.6" opacity="0.55"/>
<line x1="600" y1="300" x2="800" y2="480" stroke="url(#grid)" stroke-width="1.6" opacity="0.55"/>
<line x1="600" y1="300" x2="870" y2="480" stroke="url(#grid)" stroke-width="1.6" opacity="0.55"/>
<line x1="600" y1="300" x2="940" y2="480" stroke="url(#grid)" stroke-width="1.6" opacity="0.55"/>
<line x1="600" y1="300" x2="1010" y2="480" stroke="url(#grid)" stroke-width="1.6" opacity="0.55"/>
<line x1="600" y1="300" x2="1080" y2="480" stroke="url(#grid)" stroke-width="1.6" opacity="0.55"/>
<line x1="600" y1="300" x2="1150" y2="480" stroke="url(#grid)" stroke-width="1.6" opacity="0.55"/>
<line x1="600" y1="300" x2="1220" y2="480" stroke="url(#grid)" stroke-width="1.6" opacity="0.55"/>
<line x1="600" y1="300" x2="1290" y2="480" stroke="url(#grid)" stroke-width="1.6" opacity="0.55"/>
<line x1="600" y1="300" x2="1360" y2="480" stroke="url(#grid)" stroke-width="1.6" opacity="0.55"/>
<line x1="600" y1="300" x2="1430" y2="480" stroke="url(#grid)" stroke-width="1.6" opacity="0.55"/>
<line x1="600" y1="300" x2="1500" y2="480" stroke="url(#grid)" stroke-width="1.6" opacity="0.55"/>
<line x1="600" y1="300" x2="1570" y2="480" stroke="url(#grid)" stroke-width="1.6" opacity="0.55"/>
<line x1="600" y1="300" x2="1640" y2="480" stroke="url(#grid)" stroke-width="1.6" opacity="0.55"/>
<line x1="600" y1="300" x2="1710" y2="480" stroke="url(#grid)" stroke-width="1.6" opacity="0.55"/>
<line x1="600" y1="300" x2="1780" y2="480" stroke="url(#grid)" stroke-width="1.6" opacity="0.55"/>
<line x1="0" y1="301.8" x2="1200" y2="301.8" stroke="url(#grid)" stroke-width="1.2" opacity="0.65"/>
<line x1="0" y1="307.6" x2="1200" y2="307.6" stroke="url(#grid)" stroke-width="1.3" opacity="0.64"/>
<line x1="0" y1="317.9" x2="1200" y2="317.9" stroke="url(#grid)" stroke-width="1.4" opacity="0.63"/>
<line x1="0" y1="332.8" x2="1200" y2="332.8" stroke="url(#grid)" stroke-width="1.6" opacity="0.60"/>
<line x1="0" y1="352.4" x2="1200" y2="352.4" stroke="url(#grid)" stroke-width="1.8" opacity="0.58"/>
<line x1="0" y1="376.8" x2="1200" y2="376.8" stroke="url(#grid)" stroke-width="2.1" opacity="0.54"/>
<line x1="0" y1="406.2" x2="1200" y2="406.2" stroke="url(#grid)" stroke-width="2.4" opacity="0.50"/>
<line x1="0" y1="440.6" x2="1200" y2="440.6" stroke="url(#grid)" stroke-width="2.8" opacity="0.45"/>
<line x1="0" y1="480.0" x2="1200" y2="480.0" stroke="url(#grid)" stroke-width="3.2" opacity="0.40"/>
<rect x="0" y="300" width="1200" height="180" fill="#ff2e97" opacity="0.06"/>
<text x="600" y="112" text-anchor="middle" font-family="Arial Black, Impact, sans-serif" font-size="70" font-weight="900" letter-spacing="6" fill="#20e6ff" opacity="0.9" filter="url(#glow)">IBIZA INNER CIRCLE</text>
<text x="600" y="112" text-anchor="middle" font-family="Arial Black, Impact, sans-serif" font-size="70" font-weight="900" letter-spacing="6" fill="#f4feff">IBIZA INNER CIRCLE</text>
<text x="600" y="156" text-anchor="middle" font-family="Arial Black, Impact, sans-serif" font-size="26" font-weight="900" letter-spacing="14" fill="#c8ff3d" filter="url(#glow)">SAMAR · BRAIN</text>
<rect x="0" y="0" width="1200" height="1" fill="#000010" opacity="0.14"/>
<rect x="0" y="4" width="1200" height="1" fill="#000010" opacity="0.14"/>
<rect x="0" y="8" width="1200" height="1" fill="#000010" opacity="0.14"/>
<rect x="0" y="12" width="1200" height="1" fill="#000010" opacity="0.14"/>
<rect x="0" y="16" width="1200" height="1" fill="#000010" opacity="0.14"/>
<rect x="0" y="20" width="1200" height="1" fill="#000010" opacity="0.14"/>
<rect x="0" y="24" width="1200" height="1" fill="#000010" opacity="0.14"/>
<rect x="0" y="28" width="1200" height="1" fill="#000010" opacity="0.14"/>
<rect x="0" y="32" width="1200" height="1" fill="#000010" opacity="0.14"/>
<rect x="0" y="36" width="1200" height="1" fill="#000010" opacity="0.14"/>
<rect x="0" y="40" width="1200" height="1" fill="#000010" opacity="0.14"/>
<rect x="0" y="44" width="1200" height="1" fill="#000010" opacity="0.14"/>
<rect x="0" y="48" width="1200" height="1" fill="#000010" opacity="0.14"/>
<rect x="0" y="52" width="1200" height="1" fill="#000010" opacity="0.14"/>
<rect x="0" y="56" width="1200" height="1" fill="#000010" opacity="0.14"/>
<rect x="0" y="60" width="1200" height="1" fill="#000010" opacity="0.14"/>
<rect x="0" y="64" width="1200" height="1" fill="#000010" opacity="0.14"/>
<rect x="0" y="68" width="1200" height="1" fill="#000010" opacity="0.14"/>
<rect x="0" y="72" width="1200" height="1" fill="#000010" opacity="0.14"/>
<rect x="0" y="76" width="1200" height="1" fill="#000010" opacity="0.14"/>
<rect x="0" y="80" width="1200" height="1" fill="#000010" opacity="0.14"/>
<rect x="0" y="84" width="1200" height="1" fill="#000010" opacity="0.14"/>
<rect x="0" y="88" width="1200" height="1" fill="#000010" opacity="0.14"/>
<rect x="0" y="92" width="1200" height="1" fill="#000010" opacity="0.14"/>
<rect x="0" y="96" width="1200" height="1" fill="#000010" opacity="0.14"/>
<rect x="0" y="100" width="1200" height="1" fill="#000010" opacity="0.14"/>
<rect x="0" y="104" width="1200" height="1" fill="#000010" opacity="0.14"/>
<rect x="0" y="108" width="1200" height="1" fill="#000010" opacity="0.14"/>
<rect x="0" y="112" width="1200" height="1" fill="#000010" opacity="0.14"/>
<rect x="0" y="116" width="1200" height="1" fill="#000010" opacity="0.14"/>
<rect x="0" y="120" width="1200" height="1" fill="#000010" opacity="0.14"/>
<rect x="0" y="124" width="1200" height="1" fill="#000010" opacity="0.14"/>
<rect x="0" y="128" width="1200" height="1" fill="#000010" opacity="0.14"/>
<rect x="0" y="132" width="1200" height="1" fill="#000010" opacity="0.14"/>
<rect x="0" y="136" width="1200" height="1" fill="#000010" opacity="0.14"/>
<rect x="0" y="140" width="1200" height="1" fill="#000010" opacity="0.14"/>
<rect x="0" y="144" width="1200" height="1" fill="#000010" opacity="0.14"/>
<rect x="0" y="148" width="1200" height="1" fill="#000010" opacity="0.14"/>
<rect x="0" y="152" width="1200" height="1" fill="#000010" opacity="0.14"/>
<rect x="0" y="156" width="1200" height="1" fill="#000010" opacity="0.14"/>
<rect x="0" y="160" width="1200" height="1" fill="#000010" opacity="0.14"/>
<rect x="0" y="164" width="1200" height="1" fill="#000010" opacity="0.14"/>
<rect x="0" y="168" width="1200" height="1" fill="#000010" opacity="0.14"/>
<rect x="0" y="172" width="1200" height="1" fill="#000010" opacity="0.14"/>
<rect x="0" y="176" width="1200" height="1" fill="#000010" opacity="0.14"/>
<rect x="0" y="180" width="1200" height="1" fill="#000010" opacity="0.14"/>
<rect x="0" y="184" width="1200" height="1" fill="#000010" opacity="0.14"/>
<rect x="0" y="188" width="1200" height="1" fill="#000010" opacity="0.14"/>
<rect x="0" y="192" width="1200" height="1" fill="#000010" opacity="0.14"/>
<rect x="0" y="196" width="1200" height="1" fill="#000010" opacity="0.14"/>
<rect x="0" y="200" width="1200" height="1" fill="#000010" opacity="0.14"/>
<rect x="0" y="204" width="1200" height="1" fill="#000010" opacity="0.14"/>
<rect x="0" y="208" width="1200" height="1" fill="#000010" opacity="0.14"/>
<rect x="0" y="212" width="1200" height="1" fill="#000010" opacity="0.14"/>
<rect x="0" y="216" width="1200" height="1" fill="#000010" opacity="0.14"/>
<rect x="0" y="220" width="1200" height="1" fill="#000010" opacity="0.14"/>
<rect x="0" y="224" width="1200" height="1" fill="#000010" opacity="0.14"/>
<rect x="0" y="228" width="1200" height="1" fill="#000010" opacity="0.14"/>
<rect x="0" y="232" width="1200" height="1" fill="#000010" opacity="0.14"/>
<rect x="0" y="236" width="1200" height="1" fill="#000010" opacity="0.14"/>
<rect x="0" y="240" width="1200" height="1" fill="#000010" opacity="0.14"/>
<rect x="0" y="244" width="1200" height="1" fill="#000010" opacity="0.14"/>
<rect x="0" y="248" width="1200" height="1" fill="#000010" opacity="0.14"/>
<rect x="0" y="252" width="1200" height="1" fill="#000010" opacity="0.14"/>
<rect x="0" y="256" width="1200" height="1" fill="#000010" opacity="0.14"/>
<rect x="0" y="260" width="1200" height="1" fill="#000010" opacity="0.14"/>
<rect x="0" y="264" width="1200" height="1" fill="#000010" opacity="0.14"/>
<rect x="0" y="268" width="1200" height="1" fill="#000010" opacity="0.14"/>
<rect x="0" y="272" width="1200" height="1" fill="#000010" opacity="0.14"/>
<rect x="0" y="276" width="1200" height="1" fill="#000010" opacity="0.14"/>
<rect x="0" y="280" width="1200" height="1" fill="#000010" opacity="0.14"/>
<rect x="0" y="284" width="1200" height="1" fill="#000010" opacity="0.14"/>
<rect x="0" y="288" width="1200" height="1" fill="#000010" opacity="0.14"/>
<rect x="0" y="292" width="1200" height="1" fill="#000010" opacity="0.14"/>
<rect x="0" y="296" width="1200" height="1" fill="#000010" opacity="0.14"/>
<rect x="0" y="300" width="1200" height="1" fill="#000010" opacity="0.14"/>
<rect x="0" y="304" width="1200" height="1" fill="#000010" opacity="0.14"/>
<rect x="0" y="308" width="1200" height="1" fill="#000010" opacity="0.14"/>
<rect x="0" y="312" width="1200" height="1" fill="#000010" opacity="0.14"/>
<rect x="0" y="316" width="1200" height="1" fill="#000010" opacity="0.14"/>
<rect x="0" y="320" width="1200" height="1" fill="#000010" opacity="0.14"/>
<rect x="0" y="324" width="1200" height="1" fill="#000010" opacity="0.14"/>
<rect x="0" y="328" width="1200" height="1" fill="#000010" opacity="0.14"/>
<rect x="0" y="332" width="1200" height="1" fill="#000010" opacity="0.14"/>
<rect x="0" y="336" width="1200" height="1" fill="#000010" opacity="0.14"/>
<rect x="0" y="340" width="1200" height="1" fill="#000010" opacity="0.14"/>
<rect x="0" y="344" width="1200" height="1" fill="#000010" opacity="0.14"/>
<rect x="0" y="348" width="1200" height="1" fill="#000010" opacity="0.14"/>
<rect x="0" y="352" width="1200" height="1" fill="#000010" opacity="0.14"/>
<rect x="0" y="356" width="1200" height="1" fill="#000010" opacity="0.14"/>
<rect x="0" y="360" width="1200" height="1" fill="#000010" opacity="0.14"/>
<rect x="0" y="364" width="1200" height="1" fill="#000010" opacity="0.14"/>
<rect x="0" y="368" width="1200" height="1" fill="#000010" opacity="0.14"/>
<rect x="0" y="372" width="1200" height="1" fill="#000010" opacity="0.14"/>
<rect x="0" y="376" width="1200" height="1" fill="#000010" opacity="0.14"/>
<rect x="0" y="380" width="1200" height="1" fill="#000010" opacity="0.14"/>
<rect x="0" y="384" width="1200" height="1" fill="#000010" opacity="0.14"/>
<rect x="0" y="388" width="1200" height="1" fill="#000010" opacity="0.14"/>
<rect x="0" y="392" width="1200" height="1" fill="#000010" opacity="0.14"/>
<rect x="0" y="396" width="1200" height="1" fill="#000010" opacity="0.14"/>
<rect x="0" y="400" width="1200" height="1" fill="#000010" opacity="0.14"/>
<rect x="0" y="404" width="1200" height="1" fill="#000010" opacity="0.14"/>
<rect x="0" y="408" width="1200" height="1" fill="#000010" opacity="0.14"/>
<rect x="0" y="412" width="1200" height="1" fill="#000010" opacity="0.14"/>
<rect x="0" y="416" width="1200" height="1" fill="#000010" opacity="0.14"/>
<rect x="0" y="420" width="1200" height="1" fill="#000010" opacity="0.14"/>
<rect x="0" y="424" width="1200" height="1" fill="#000010" opacity="0.14"/>
<rect x="0" y="428" width="1200" height="1" fill="#000010" opacity="0.14"/>
<rect x="0" y="432" width="1200" height="1" fill="#000010" opacity="0.14"/>
<rect x="0" y="436" width="1200" height="1" fill="#000010" opacity="0.14"/>
<rect x="0" y="440" width="1200" height="1" fill="#000010" opacity="0.14"/>
<rect x="0" y="444" width="1200" height="1" fill="#000010" opacity="0.14"/>
<rect x="0" y="448" width="1200" height="1" fill="#000010" opacity="0.14"/>
<rect x="0" y="452" width="1200" height="1" fill="#000010" opacity="0.14"/>
<rect x="0" y="456" width="1200" height="1" fill="#000010" opacity="0.14"/>
<rect x="0" y="460" width="1200" height="1" fill="#000010" opacity="0.14"/>
<rect x="0" y="464" width="1200" height="1" fill="#000010" opacity="0.14"/>
<rect x="0" y="468" width="1200" height="1" fill="#000010" opacity="0.14"/>
<rect x="0" y="472" width="1200" height="1" fill="#000010" opacity="0.14"/>
<rect x="0" y="476" width="1200" height="1" fill="#000010" opacity="0.14"/>
</svg>